<?xml version="1.0" encoding="UTF-8"?>
<!DOCTYPE svg PUBLIC "-//W3C//DTD SVG 1.1//EN" "http://www.w3.org/Graphics/SVG/1.1/DTD/svg11.dtd">
<!-- Creator: CorelDRAW X7 -->
<svg xmlns="http://www.w3.org/2000/svg" xml:space="preserve" width="3.59319in" height="1.09906in" version="1.1" style="shape-rendering:geometricPrecision; text-rendering:geometricPrecision; image-rendering:optimizeQuality; fill-rule:evenodd; clip-rule:evenodd"
viewBox="0 0 1707 522"
 xmlns:xlink="http://www.w3.org/1999/xlink">
 <defs>
  <style type="text/css">
   <![CDATA[
    .str1 {stroke:#373435;stroke-width:4.94714}
    .str0 {stroke:#F58634;stroke-width:9.89801}
    .str2 {stroke:#373435;stroke-width:3.29934}
    .fil0 {fill:none}
    .fil5 {fill:#FEFEFE}
    .fil4 {fill:#373435}
    .fil6 {fill:#F58634}
    .fil3 {fill:#BF3235}
    .fil7 {fill:#FEFEFE;fill-rule:nonzero}
    .fil2 {fill:#373435;fill-rule:nonzero}
    .fil1 {fill:#BF3235;fill-rule:nonzero}
   ]]>
  </style>
 </defs>
 <g id="Layer_x0020_1">
  <metadata id="CorelCorpID_0Corel-Layer"/>
  <line class="fil0 str0" x1="1704" y1="517" x2="463" y2= "517" />
  <g id="_622690192">
   <g>
    <g>
     <path class="fil1" d="M488 149c0,29 19,68 58,68l2 0c5,0 11,0 16,0 12,0 25,0 34,0 12,0 25,-4 25,-8 0,-1 0,-2 0,-2 -4,-4 -11,-7 -11,-13l0 -42c0,-9 5,-13 11,-16 2,-1 4,-3 4,-4 0,-1 -3,-3 -10,-3 -8,1 -15,1 -21,1 -5,0 -13,-1 -19,-1 -5,0 -9,1 -9,3 0,0 -1,1 -1,1 0,6 13,7 13,16l0 26c0,5 0,8 -5,10 -7,1 -14,3 -19,3 -32,0 -43,-28 -43,-53 2,-36 14,-47 48,-50 7,0 17,0 17,6 0,6 -7,8 -14,12 -7,5 -39,16 -39,29 0,6 5,11 13,11 8,0 12,-5 12,-9 0,-2 -1,-4 -2,-5 0,-1 0,-2 0,-2 0,-9 25,-17 43,-25 7,-3 21,-8 21,-19 0,-10 -22,-11 -37,-11l-9 0c-62,0 -78,36 -78,77z"/>
     <path class="fil1" d="M647 197c0,5 -5,7 -9,8 -1,1 -3,3 -3,5 0,2 2,4 5,5 3,1 7,2 10,2 4,0 8,-1 13,-1 4,0 8,1 12,1 2,0 5,0 7,-1 5,-1 9,-4 9,-7 0,-1 -1,-3 -3,-4 -8,-3 -10,-3 -11,-9l0 -57c3,0 12,-4 17,-4 3,0 6,2 6,4l0 1c0,5 -6,13 -6,17 0,3 3,5 11,6 0,-1 -1,-1 -1,-1 0,-2 6,-3 12,-5 10,-5 14,-18 14,-24 0,-12 -5,-22 -21,-22 -13,0 -27,18 -32,18 0,-5 5,-7 9,-10 1,-1 2,-3 2,-3 0,-2 -2,-4 -8,-4l-37 0c-6,0 -8,2 -8,4 0,2 2,4 5,5 5,1 7,4 7,11l0 65z"/>
     <path class="fil1" d="M741 186c0,16 13,30 35,30 1,0 3,0 4,0 11,0 20,-2 27,-2 7,0 19,2 30,2 17,0 25,-4 25,-8 0,-2 -3,-5 -9,-8l0 -55c0,-24 -13,-33 -27,-33 -7,1 -13,1 -19,1 -12,0 -22,-1 -34,-1 -4,0 -26,2 -26,15 0,12 12,16 25,16 6,0 13,-1 17,-2l3 0c3,0 5,1 5,2 0,0 -2,2 -4,2 -27,8 -52,19 -52,41zm82 -1c-9,0 -21,5 -29,5 -16,-2 -19,-8 -19,-18 0,-11 23,-20 35,-25 6,-2 8,-5 8,-9 0,-3 -4,-6 -11,-6l-2 0c-6,0 -15,1 -21,1 -3,0 -6,-1 -8,-1 -1,-2 -2,-3 -2,-3 0,-4 14,-7 22,-7 20,0 27,7 27,20l0 43z"/>
     <path class="fil1" d="M886 235c0,3 -4,3 -9,6 -2,1 -4,3 -4,4 0,2 3,5 5,5 4,2 9,3 11,3 5,0 10,-1 12,-1 4,0 8,0 13,0 2,0 4,0 7,0 4,-1 7,-4 7,-7 0,-1 -1,-3 -4,-4 -3,-2 -8,-3 -8,-6l0 -25c-4,-3 -7,-8 -7,-13 0,-5 3,-12 7,-15l0 -44c6,-6 19,-11 28,-11 12,0 26,9 26,30 0,17 -7,31 -24,33 -9,0 -9,-2 -11,-7 -3,-8 -11,-9 -18,-9 1,1 1,3 1,5 0,5 -6,11 -6,15 0,14 10,23 32,23l2 0c25,0 48,-24 48,-54 -2,-36 -20,-52 -45,-52 -19,0 -28,13 -35,16 0,-3 3,-6 7,-8 1,0 1,-2 1,-2 0,-2 -1,-5 -6,-5l-32 0c-7,0 -10,3 -10,5 0,2 1,3 3,4 5,3 9,3 9,8l0 106z"/>
     <path class="fil1" d="M1020 200c-7,5 -13,7 -13,11 0,3 6,6 9,6 1,0 3,1 4,1 4,0 7,-2 14,-2 6,0 11,2 14,2 1,0 2,-1 3,-1 6,-1 11,-4 11,-7 0,-5 -11,-5 -12,-11l0 -64c9,0 14,-3 25,-5 7,0 14,6 14,15l0 55c-4,5 -13,5 -13,11 0,3 6,6 14,6 6,0 9,-1 13,-1 4,0 9,0 13,0 2,0 6,0 8,0 5,-1 7,-3 7,-5 0,-3 -4,-7 -12,-9l0 -67c0,-17 -18,-23 -30,-23 -20,0 -28,10 -39,13l0 -37c6,-2 13,-6 13,-9 0,-2 -3,-4 -12,-4l-35 0c-8,0 -11,2 -11,4 0,2 2,4 4,4 4,2 7,3 11,5l0 112z"/>
     <path class="fil1" d="M1154 89c0,8 8,10 17,10 9,0 16,-4 16,-10 0,-9 -11,-9 -16,-9 -14,0 -17,3 -17,9zm1 112c-3,3 -5,4 -9,6 -1,1 -2,2 -2,3 0,2 4,5 8,6 2,1 4,1 6,1 3,0 9,-1 13,-1 4,0 9,1 13,1 2,0 4,0 6,-1 5,-1 9,-3 9,-6 0,-1 -1,-2 -3,-3 -4,-3 -11,-5 -11,-8l0 -74c9,-2 14,-5 14,-7 0,-3 -5,-6 -12,-6l-37 0c-5,0 -8,3 -8,5 0,3 5,7 13,8l0 76z"/>
     <path class="fil1" d="M1210 169c0,16 6,42 31,48 2,0 4,1 5,1 8,0 18,-2 24,-2 7,0 12,1 19,1 25,0 32,-15 32,-24 0,-10 -6,-15 -14,-19 -2,8 -11,16 -30,16 -21,0 -43,-8 -43,-28 0,0 0,-2 0,-2 0,-19 7,-39 32,-39 8,0 18,4 18,8l0 1c-1,2 -3,3 -5,3 -2,0 -5,-1 -9,-1 -4,0 -8,4 -8,7 0,3 2,5 4,6 1,-2 2,-2 3,-2 3,0 7,9 20,9 11,0 19,-8 19,-19 0,-22 -29,-24 -38,-24 -55,2 -60,43 -60,60z"/>
    </g>
    <g>
     <path class="fil2" d="M1356 188c-1,12 -25,14 -25,20l0 0c3,7 18,8 33,8 8,0 18,0 24,0 12,0 27,1 40,1 20,0 37,-3 38,-20 0,-11 -5,-15 -12,-17 -4,10 -17,10 -27,10 -2,0 -6,0 -9,0 -15,0 -34,-2 -34,-13l0 -30c-6,-5 -10,-10 -10,-15 0,-6 5,-12 12,-18l0 -23c2,-6 11,-8 18,-8 7,0 19,2 19,8 0,6 -24,17 -33,25 -6,5 -11,9 -11,16 0,6 5,13 18,13 9,0 14,-1 21,-4 2,-1 5,-2 7,-2 3,0 7,3 7,6 7,-1 9,-7 9,-12 -2,-10 -11,-14 -20,-14 -8,0 -17,3 -21,5 -1,0 -3,1 -3,1 -1,0 -2,-1 -2,-1 0,-1 2,-4 7,-6 11,-6 59,-24 59,-36 0,-7 -6,-10 -29,-10l-65 0c-14,0 -34,3 -34,10 2,9 23,7 23,18l0 88z"/>
     <path class="fil2" d="M1487 197c0,5 -5,7 -9,8 -1,1 -3,3 -3,5 0,2 2,4 5,5 3,1 7,2 10,2 4,0 8,-1 12,-1 5,0 9,1 13,1 2,0 5,0 7,-1 5,-1 9,-4 9,-7 0,-1 -1,-3 -4,-4 -7,-3 -9,-3 -10,-9l0 -57c3,0 11,-4 17,-4 3,0 6,2 6,4l0 1c0,5 -6,13 -6,17 0,3 3,5 11,6 0,-1 -1,-1 -1,-1 0,-2 6,-3 12,-5 10,-5 14,-18 14,-24 0,-12 -5,-22 -21,-22 -13,0 -27,18 -32,18 0,-5 5,-7 9,-10 1,-1 1,-3 1,-3 0,-2 -1,-4 -7,-4l-37 0c-6,0 -8,2 -8,4 0,2 2,4 5,5 5,1 7,4 7,11l0 65z"/>
     <path class="fil2" d="M1581 186c0,16 13,30 35,30 1,0 3,0 4,0 11,0 20,-2 27,-2 7,0 19,2 30,2 17,0 25,-4 25,-8 0,-2 -4,-5 -9,-8l0 -55c0,-24 -13,-33 -27,-33 -7,1 -13,1 -19,1 -12,0 -22,-1 -34,-1 -4,0 -27,2 -27,15 0,12 13,16 25,16 7,0 14,-1 18,-2l3 0c3,0 5,1 5,2 0,0 -2,2 -4,2 -27,8 -52,19 -52,41zm82 -1c-9,0 -22,5 -29,5 -16,-2 -19,-8 -19,-18 0,-11 23,-20 35,-25 5,-2 8,-5 8,-9 0,-3 -4,-6 -11,-6l-2 0c-6,0 -15,1 -21,1 -3,0 -6,-1 -8,-1 -1,-2 -2,-3 -2,-3 0,-4 13,-7 22,-7 19,0 27,7 27,20l0 43z"/>
    </g>
    <path class="fil3" d="M789 364l-9 0 -4 -10 -17 0 -3 10 -9 0 16 -42 9 0 17 42zm-15 -17l-6 -15 -6 15 12 0zm46 -4l-8 1c0,-2 0,-3 -1,-4 -1,0 -3,-1 -4,-1 -2,0 -4,1 -5,2 -1,2 -2,4 -2,7 0,4 1,7 2,8 1,2 3,2 5,2 2,0 3,0 4,-1 1,-1 1,-2 2,-5l8 2c-1,3 -3,6 -5,8 -2,2 -5,3 -9,3 -5,0 -8,-2 -11,-4 -3,-3 -4,-7 -4,-12 0,-5 1,-9 4,-12 3,-3 6,-4 11,-4 4,0 6,1 9,2 2,2 3,4 4,8zm33 0l-8 1c0,-2 -1,-3 -2,-4 -1,0 -2,-1 -3,-1 -2,0 -4,1 -5,2 -1,2 -2,4 -2,7 0,4 1,7 2,8 1,2 3,2 5,2 1,0 3,0 4,-1 1,-1 1,-2 2,-5l8 2c-1,3 -3,6 -5,8 -2,2 -6,3 -10,3 -4,0 -8,-2 -10,-4 -3,-3 -4,-7 -4,-12 0,-5 1,-9 4,-12 2,-3 6,-4 11,-4 3,0 6,1 9,2 2,2 3,4 4,8zm14 21l-8 0 0 -31 8 0 0 5c1,-2 2,-4 3,-4 1,-1 2,-1 4,-1 1,0 3,0 5,1l-3 7c-1,0 -2,-1 -3,-1 -2,0 -3,0 -3,1 -1,1 -2,2 -2,3 -1,2 -1,5 -1,11l0 9zm33 -10l8 2c-1,3 -3,5 -5,7 -2,1 -5,2 -8,2 -5,0 -9,-2 -12,-5 -2,-3 -3,-7 -3,-11 0,-5 1,-9 4,-12 3,-3 6,-4 10,-4 5,0 8,1 11,4 2,3 4,8 4,14l-21 0c0,3 1,4 2,6 2,1 3,2 5,2 1,0 2,-1 3,-1 1,-1 2,-2 2,-4zm1 -8c-1,-2 -1,-4 -2,-5 -1,-1 -3,-2 -4,-2 -2,0 -4,1 -5,2 -1,1 -2,3 -2,5l13 0zm42 18l-7 0 0 -4c-1,1 -3,3 -5,4 -1,0 -3,1 -5,1 -3,0 -6,-2 -9,-4 -2,-3 -4,-7 -4,-12 0,-5 2,-9 4,-12 2,-3 6,-4 9,-4 4,0 7,1 9,4l0 -15 8 0 0 42zm-21 -16c0,3 0,6 1,7 1,2 3,3 6,3 1,0 3,0 4,-2 2,-1 2,-4 2,-7 0,-4 0,-6 -2,-8 -1,-1 -3,-2 -5,-2 -1,0 -3,1 -4,2 -2,2 -2,4 -2,7zm29 -19l0 -7 8 0 0 7 -8 0zm0 35l0 -31 8 0 0 31 -8 0zm31 -31l0 7 -6 0 0 12c0,3 0,4 0,5 0,0 1,0 1,1 0,0 1,0 1,0 1,0 2,0 4,-1l0 7c-2,0 -4,1 -6,1 -2,0 -3,0 -4,-1 -1,0 -2,-1 -3,-2 0,-1 -1,-2 -1,-3 0,-1 0,-3 0,-6l0 -13 -4 0 0 -7 4 0 0 -6 8 -4 0 10 6 0zm23 21l8 2c-1,3 -3,5 -5,7 -2,1 -5,2 -8,2 -6,0 -9,-2 -12,-5 -2,-3 -3,-7 -3,-11 0,-5 1,-9 4,-12 3,-3 6,-4 10,-4 5,0 8,1 11,4 2,3 4,8 4,14l-21 0c0,3 1,4 2,6 1,1 3,2 5,2 1,0 2,-1 3,-1 1,-1 2,-2 2,-4zm0 -8c0,-2 0,-4 -1,-5 -1,-1 -3,-2 -5,-2 -1,0 -3,1 -4,2 -1,1 -2,3 -2,5l12 0zm43 18l-7 0 0 -4c-2,1 -3,3 -5,4 -1,0 -3,1 -5,1 -3,0 -6,-2 -9,-4 -2,-3 -4,-7 -4,-12 0,-5 2,-9 4,-12 2,-3 6,-4 9,-4 4,0 7,1 9,4l0 -15 8 0 0 42zm-21 -16c0,3 0,6 1,7 1,2 3,3 5,3 2,0 4,0 5,-2 1,-1 2,-4 2,-7 0,-4 0,-6 -2,-8 -1,-1 -3,-2 -5,-2 -2,0 -3,1 -4,2 -2,2 -2,4 -2,7zm45 16l0 -42 8 0 0 15c3,-3 6,-4 9,-4 4,0 7,1 9,4 3,3 4,6 4,12 0,5 -1,9 -4,12 -2,2 -5,4 -9,4 -1,0 -3,-1 -5,-1 -2,-1 -3,-3 -4,-4l0 4 -8 0zm8 -16c0,3 1,6 2,7 1,2 3,3 5,3 2,0 4,0 5,-2 1,-1 2,-4 2,-7 0,-4 -1,-6 -2,-8 -1,-1 -3,-2 -5,-2 -2,0 -4,1 -5,2 -1,2 -2,4 -2,7zm25 -15l8 0 8 22 7 -22 8 0 -11 30 -1 5c-1,2 -2,3 -3,4 0,1 -1,2 -2,3 -1,0 -2,1 -3,1 -1,0 -2,1 -4,1 -2,0 -3,-1 -5,-1l0 -6c1,0 2,0 3,0 2,0 3,0 4,-2 1,-1 2,-2 2,-4l-11 -31zm53 31l0 -42 8 0 18 28 0 -28 8 0 0 42 -9 0 -17 -28 0 28 -8 0zm81 0l-10 0 -3 -10 -17 0 -4 10 -9 0 17 -42 9 0 17 42zm-16 -17l-6 -15 -6 15 12 0zm58 17l-9 0 -4 -10 -17 0 -3 10 -9 0 16 -42 9 0 17 42zm-15 -17l-6 -15 -6 15 12 0zm47 2l8 2c-1,5 -3,8 -6,10 -3,3 -7,4 -11,4 -6,0 -11,-2 -14,-6 -4,-4 -6,-9 -6,-16 0,-7 2,-12 6,-16 3,-4 8,-6 14,-6 5,0 9,2 13,5 2,1 3,4 4,7l-8 2c-1,-2 -2,-3 -4,-5 -1,-1 -3,-2 -5,-2 -3,0 -6,2 -8,4 -2,2 -3,6 -3,11 0,5 1,9 3,11 2,2 4,3 7,3 3,0 5,0 6,-2 2,-1 3,-3 4,-6zm37 15l-9 -31 8 0 5 21 6 -21 7 0 6 21 5 -21 8 0 -9 31 -8 0 -5 -20 -6 20 -8 0zm41 -35l0 -7 8 0 0 7 -8 0zm0 35l0 -31 8 0 0 31 -8 0zm30 -31l0 7 -5 0 0 12c0,3 0,4 0,5 0,0 0,0 0,1 1,0 1,0 2,0 1,0 2,0 3,-1l1 7c-2,0 -4,1 -7,1 -1,0 -2,0 -4,-1 -1,0 -2,-1 -2,-2 -1,-1 -1,-2 -1,-3 0,-1 -1,-3 -1,-6l0 -13 -3 0 0 -7 3 0 0 -6 9 -4 0 10 5 0zm14 -11l0 16c2,-4 6,-5 9,-5 2,0 4,0 5,1 2,1 3,1 4,3 0,1 1,2 1,3 0,1 1,3 1,6l0 18 -8 0 0 -16c0,-3 -1,-5 -1,-6 0,-1 -1,-2 -2,-2 0,-1 -1,-1 -3,-1 -1,0 -2,0 -3,1 -1,1 -2,2 -3,3 0,1 0,3 0,6l0 15 -8 0 0 -42 8 0zm64 27l0 -8 18 0 0 17c-1,2 -4,4 -7,5 -4,1 -7,2 -11,2 -4,0 -8,-1 -11,-3 -4,-2 -6,-4 -8,-8 -1,-3 -2,-7 -2,-11 0,-5 1,-8 3,-12 1,-3 4,-6 8,-8 2,-1 6,-2 10,-2 5,0 9,1 12,3 3,3 5,6 6,10l-9 1c0,-2 -1,-4 -3,-5 -2,-1 -4,-2 -6,-2 -4,0 -7,2 -9,4 -2,2 -3,6 -3,10 0,6 1,9 3,12 2,2 5,4 9,4 1,0 3,-1 5,-1 2,-1 3,-2 5,-3l0 -5 -10 0zm34 15l-8 0 0 -31 7 0 0 5c2,-2 3,-4 4,-4 1,-1 2,-1 3,-1 2,0 4,0 6,1l-3 7c-1,0 -3,-1 -4,-1 -1,0 -2,0 -3,1 0,1 -1,2 -1,3 -1,2 -1,5 -1,11l0 9zm21 -21l-7 -1c1,-3 2,-6 4,-7 2,-1 5,-2 9,-2 4,0 6,0 8,1 2,1 3,2 4,3 1,2 1,4 1,8l0 9c0,3 0,5 0,6 0,1 1,3 2,4l-8 0c-1,0 -1,-1 -1,-2 0,-1 0,-1 0,-1 -2,1 -3,2 -5,3 -1,1 -3,1 -5,1 -3,0 -5,-1 -7,-3 -2,-1 -3,-4 -3,-6 0,-2 0,-3 1,-5 1,-1 2,-2 4,-3 1,-1 3,-1 6,-2 4,-1 7,-1 8,-2l0 -1c0,-1 0,-2 -1,-3 -1,-1 -2,-1 -5,-1 -1,0 -2,0 -3,1 -1,0 -1,1 -2,3zm11 6c-1,1 -3,1 -5,2 -2,0 -4,1 -4,1 -1,1 -2,2 -2,3 0,1 0,2 1,3 1,1 2,1 4,1 1,0 2,0 4,-1 1,-1 1,-2 2,-3 0,-1 0,-2 0,-4l0 -2zm44 15l-7 0 0 -4c-2,1 -3,3 -5,4 -2,0 -3,1 -5,1 -4,0 -7,-2 -9,-4 -3,-3 -4,-7 -4,-12 0,-5 1,-9 4,-12 2,-3 5,-4 9,-4 3,0 6,1 9,4l0 -15 8 0 0 42zm-22 -16c0,3 1,6 2,7 1,2 3,3 5,3 2,0 4,0 5,-2 1,-1 2,-4 2,-7 0,-4 -1,-6 -2,-8 -1,-1 -3,-2 -5,-2 -2,0 -3,1 -5,2 -1,2 -2,4 -2,7zm48 6l8 2c-1,3 -3,5 -5,7 -2,1 -5,2 -9,2 -5,0 -9,-2 -11,-5 -2,-3 -3,-7 -3,-11 0,-5 1,-9 4,-12 2,-3 6,-4 10,-4 4,0 8,1 10,4 3,3 4,8 4,14l-20 0c0,3 1,4 2,6 1,1 3,2 5,2 1,0 2,-1 3,-1 1,-1 1,-2 2,-4zm0 -8c0,-2 0,-4 -2,-5 -1,-1 -2,-2 -4,-2 -2,0 -3,1 -4,2 -1,1 -2,3 -2,5l12 0zm67 18l-9 0 -4 -10 -17 0 -3 10 -9 0 16 -42 9 0 17 42zm-15 -17l-6 -15 -6 15 12 0z"/>
    <path class="fil4" d="M950 242l17 0c4,0 7,0 9,0 3,1 5,3 7,5 2,2 3,4 4,7 1,3 2,7 2,11 0,4 -1,7 -2,10 -1,3 -2,6 -5,8 -1,2 -3,3 -6,4 -2,1 -5,1 -8,1l-18 0 0 -46zm9 7l0 31 7 0c3,0 5,0 6,0 1,-1 3,-1 4,-2 1,-1 2,-3 2,-5 1,-2 1,-5 1,-8 0,-4 0,-7 -1,-8 0,-2 -1,-4 -2,-5 -2,-1 -3,-2 -5,-2 -1,0 -4,-1 -7,-1l-5 0zm57 28l9 2c-1,3 -3,6 -5,7 -3,2 -6,3 -10,3 -5,0 -10,-2 -13,-6 -2,-3 -3,-7 -3,-12 0,-5 2,-9 4,-13 3,-3 7,-4 12,-4 5,0 8,1 11,5 3,3 5,8 4,15l-22 0c0,2 1,4 2,6 2,1 3,2 5,2 2,0 3,0 4,-1 1,-1 2,-2 2,-4zm1 -9c0,-2 -1,-4 -2,-6 -2,-1 -3,-2 -5,-2 -2,0 -3,1 -5,3 -1,1 -2,3 -2,5l14 0zm35 9l9 2c-1,3 -3,6 -5,7 -3,2 -6,3 -10,3 -5,0 -10,-2 -13,-6 -2,-3 -3,-7 -3,-12 0,-5 2,-9 5,-13 2,-3 6,-4 11,-4 5,0 8,1 11,5 3,3 5,8 5,15l-23 0c0,2 1,4 2,6 2,1 4,2 6,2 1,0 2,0 3,-1 1,-1 2,-2 2,-4zm1 -9c0,-2 -1,-4 -2,-6 -2,-1 -3,-2 -5,-2 -2,0 -3,1 -5,3 -1,1 -2,3 -2,5l14 0zm15 -14l8 0 0 5c3,-4 7,-5 11,-5 2,0 4,0 5,1 2,1 3,2 4,4 2,-2 3,-3 5,-4 2,-1 4,-1 6,-1 2,0 4,0 6,1 1,1 3,3 4,5 0,1 1,3 1,7l0 21 -9 0 0 -19c0,-4 -1,-6 -1,-7 -1,-1 -2,-2 -4,-2 -1,0 -2,1 -4,2 -1,0 -1,1 -2,3 0,1 -1,4 -1,7l0 16 -9 0 0 -18c0,-4 0,-6 0,-7 0,-1 -1,-1 -2,-2 0,0 -1,-1 -2,-1 -2,0 -3,1 -4,2 -1,0 -2,1 -2,3 -1,1 -1,3 -1,7l0 16 -9 0 0 -34zm78 23l9 2c-1,3 -3,6 -6,7 -2,2 -5,3 -9,3 -6,0 -10,-2 -13,-6 -2,-3 -3,-7 -3,-12 0,-5 1,-9 4,-13 3,-3 7,-4 11,-4 5,0 9,1 12,5 3,3 4,8 4,15l-22 0c0,2 1,4 2,6 1,1 3,2 5,2 2,0 3,0 4,-1 1,-1 1,-2 2,-4zm0 -9c0,-2 0,-4 -2,-6 -1,-1 -2,-2 -4,-2 -2,0 -4,1 -5,3 -1,1 -2,3 -2,5l13 0zm47 20l-8 0 0 -5c-1,2 -3,3 -5,4 -2,1 -4,2 -5,2 -4,0 -8,-2 -10,-5 -3,-3 -5,-7 -5,-13 0,-6 2,-10 4,-13 3,-3 7,-4 11,-4 3,0 7,1 9,4l0 -16 9 0 0 46zm-23 -17c0,3 0,6 1,7 2,3 4,4 6,4 2,0 4,-1 5,-3 2,-2 2,-4 2,-8 0,-4 0,-6 -2,-8 -1,-2 -3,-3 -5,-3 -2,0 -4,1 -5,3 -2,2 -2,4 -2,8zm65 -17l0 7 -6 0 0 14c0,3 0,4 0,5 1,0 1,1 1,1 1,0 1,0 2,0 1,0 2,0 3,0l1 6c-2,1 -4,2 -7,2 -1,0 -3,0 -4,-1 -1,-1 -2,-1 -3,-2 -1,-1 -1,-2 -1,-4 0,-1 -1,-3 -1,-6l0 -15 -4 0 0 -7 4 0 0 -6 9 -6 0 12 6 0zm5 17c0,-3 0,-6 2,-9 1,-3 3,-5 6,-6 3,-2 6,-2 9,-2 5,0 9,1 12,5 4,3 5,7 5,12 0,5 -1,9 -5,13 -3,3 -7,5 -12,5 -3,0 -6,-1 -9,-2 -3,-2 -5,-4 -6,-6 -2,-3 -2,-6 -2,-10zm9 0c0,4 0,6 2,8 2,2 4,3 6,3 2,0 4,-1 6,-3 1,-2 2,-4 2,-8 0,-3 -1,-6 -2,-7 -2,-2 -4,-3 -6,-3 -2,0 -4,1 -6,3 -2,1 -2,4 -2,7zm50 17l0 -46 9 0 0 16c2,-3 6,-4 9,-4 5,0 8,1 11,4 2,3 4,7 4,13 0,6 -2,10 -4,13 -3,3 -7,5 -10,5 -2,0 -4,-1 -6,-2 -2,-1 -4,-2 -5,-4l0 5 -8 0zm9 -17c0,3 0,6 1,7 2,3 4,4 6,4 2,0 4,-1 5,-3 2,-1 2,-4 2,-8 0,-4 0,-6 -2,-8 -1,-2 -3,-3 -5,-3 -2,0 -4,1 -5,3 -2,2 -2,4 -2,8zm50 6l9 2c-1,3 -3,6 -5,7 -3,2 -6,3 -9,3 -6,0 -11,-2 -13,-6 -3,-3 -4,-7 -4,-12 0,-5 2,-9 5,-13 2,-3 6,-4 11,-4 5,0 9,1 11,5 3,3 5,8 5,15l-23 0c0,2 1,4 3,6 1,1 3,2 5,2 1,0 2,0 3,-1 1,-1 2,-2 2,-4zm1 -9c0,-2 -1,-4 -2,-6 -1,-1 -3,-2 -5,-2 -2,0 -3,1 -5,3 -1,1 -2,3 -1,5l13 0zm34 -26l9 0 0 25c0,4 0,6 1,7 0,2 1,4 2,5 2,1 4,2 7,2 2,0 4,-1 6,-2 1,-1 2,-2 2,-4 0,-1 0,-4 0,-8l0 -25 10 0 0 24c0,6 0,9 -1,12 0,2 -1,4 -3,6 -1,1 -3,2 -5,3 -2,1 -5,2 -9,2 -5,0 -8,-1 -10,-2 -2,-1 -4,-2 -6,-4 -1,-1 -2,-3 -2,-5 -1,-3 -1,-6 -1,-12l0 -24zm77 46l-9 0 0 -17c0,-4 0,-6 0,-7 -1,-1 -1,-2 -2,-3 -1,0 -2,-1 -3,-1 -2,0 -3,1 -4,2 -2,1 -2,2 -3,3 0,1 -1,4 -1,8l0 15 -8 0 0 -34 8 0 0 5c3,-3 6,-5 11,-5 2,0 4,0 5,1 2,0 3,1 4,2 1,1 1,3 2,4 0,2 0,4 0,6l0 21zm9 -38l0 -8 9 0 0 8 -9 0zm0 38l0 -34 9 0 0 34 -9 0zm28 0l-14 -34 9 0 7 18 1 5c1,-1 1,-2 1,-3 1,-1 1,-2 1,-2l7 -18 9 0 -13 34 -8 0zm46 -11l9 2c-2,3 -3,6 -6,7 -2,2 -5,3 -9,3 -6,0 -10,-2 -13,-6 -2,-3 -3,-7 -3,-12 0,-5 1,-9 4,-13 3,-3 7,-4 11,-4 5,0 9,1 12,5 3,3 4,8 4,15l-22 0c0,2 1,4 2,6 1,1 3,2 5,2 1,0 3,0 4,-1 1,-1 1,-2 2,-4zm0 -9c0,-2 0,-4 -2,-6 -1,-1 -3,-2 -4,-2 -2,0 -4,1 -5,3 -1,1 -2,3 -2,5l13 0zm25 20l-9 0 0 -34 8 0 0 5c2,-2 3,-4 4,-4 1,-1 2,-1 4,-1 2,0 4,0 6,1l-3 8c-2,-1 -3,-1 -4,-1 -1,0 -3,0 -3,1 -1,0 -2,2 -2,3 -1,2 -1,6 -1,12l0 10zm13 -9l9 -2c1,2 1,3 3,4 1,1 2,1 5,1 2,0 4,0 5,-1 0,0 1,-1 1,-2 0,-1 0,-1 -1,-2 0,0 -1,-1 -3,-1 -7,-2 -11,-3 -13,-4 -3,-2 -4,-5 -4,-8 0,-3 1,-5 3,-7 2,-2 6,-3 11,-3 4,0 8,0 10,2 2,1 4,4 5,7l-9 1c0,-1 -1,-2 -2,-3 -1,-1 -2,-1 -4,-1 -2,0 -4,0 -5,1 -1,0 -1,1 -1,2 0,0 0,1 1,1 1,1 3,2 8,3 5,1 8,2 10,4 2,2 3,4 3,7 0,3 -1,5 -4,7 -3,3 -6,4 -11,4 -5,0 -9,-1 -11,-3 -3,-2 -5,-4 -6,-7zm40 -29l0 -8 8 0 0 8 -8 0zm0 38l0 -34 8 0 0 34 -8 0zm33 -34l0 7 -6 0 0 14c0,3 0,4 0,5 0,0 0,1 1,1 0,0 1,0 1,0 1,0 2,0 4,0l1 6c-2,1 -5,2 -7,2 -2,0 -3,0 -5,-1 -1,-1 -2,-1 -2,-2 -1,-1 -1,-2 -2,-4 0,-1 0,-3 0,-6l0 -15 -4 0 0 -7 4 0 0 -6 9 -6 0 12 6 0zm2 0l9 0 8 24 8 -24 10 0 -12 33 -2 6c-1,2 -2,3 -3,4 0,1 -1,2 -2,3 -1,0 -2,1 -4,1 -1,0 -2,1 -4,1 -2,0 -4,-1 -5,-1l-1 -7c1,0 3,1 4,1 2,0 3,-1 4,-2 1,-2 2,-3 3,-5l-13 -34z"/>
    <g>
     <path class="fil5 str1" d="M6 237l12 -3c0,-5 -1,-10 -1,-15l-14 0c0,-5 -1,-11 -1,-17 0,-6 1,-11 1,-17l14 0c0,-5 1,-10 1,-14l-12 -4c2,-11 5,-22 8,-33l13 4c2,-5 4,-9 6,-14l-12 -6c5,-11 11,-21 17,-30l12 7c3,-4 6,-8 9,-12l-10 -9c8,-9 16,-17 25,-25l9 10c4,-3 8,-6 12,-9l-7 -12c9,-6 19,-12 30,-17l6 12c5,-2 9,-4 14,-6l-4 -13c11,-3 22,-6 33,-8l4 12c4,0 9,-1 14,-1l0 -14c6,0 11,-1 17,-1 6,0 12,1 17,1l0 14c5,0 10,1 15,1l3 -12c12,2 23,5 33,8l-3 13c4,2 9,4 13,6l7 -12c10,5 20,11 30,17l-7 12c4,3 8,6 11,9l10 -10c9,8 17,16 24,25l-9 9c3,4 6,8 8,12l12 -7c6,9 12,19 17,30l-11 6c2,5 3,9 5,14l13 -4c4,11 7,22 9,33l-13 4c1,4 1,9 2,14l13 0c1,6 1,11 1,17 0,6 0,12 -1,17l-13 0c-1,5 -1,10 -2,15l13 3c-2,12 -5,23 -9,33l-13 -3c-2,4 -3,9 -5,13l11 7c-5,10 -11,20 -17,30l-12 -7c-2,4 -5,8 -8,11l9 10c-7,9 -15,17 -24,24l-10 -9c-3,3 -7,6 -11,8l7 12c-10,6 -20,12 -30,17l-7 -11c-4,2 -9,3 -13,5l3 13c-10,4 -21,7 -33,9l-3 -13c-5,1 -10,1 -15,2l0 13c-5,1 -11,1 -17,1 -6,0 -11,0 -17,-1l0 -13c-5,-1 -10,-1 -14,-2l-4 13c-11,-2 -22,-5 -33,-9l4 -13c-5,-2 -9,-3 -14,-5l-6 11c-11,-5 -21,-11 -30,-17l7 -12c-4,-2 -8,-5 -12,-8l-9 9c-9,-7 -17,-15 -25,-24l10 -10c-3,-3 -6,-7 -9,-11l-12 7c-6,-10 -12,-20 -17,-30l12 -7c-2,-4 -4,-9 -6,-13l-13 3c-3,-10 -6,-21 -8,-33z"/>
     <path class="fil4 str2" d="M6 237l12 -3c0,-5 -1,-10 -1,-15l-14 0c0,-5 -1,-11 -1,-17 0,-4 1,-8 1,-12l2 -3 17 2 358 0 20 -2 2 3c0,4 0,8 0,12 0,6 0,12 -1,17l-13 0c-1,5 -1,10 -2,15l13 3c-2,12 -5,23 -9,33l-13 -3c-2,4 -3,9 -5,13l11 7c-5,10 -11,20 -17,30l-12 -7c-2,4 -5,8 -8,11l9 10c-7,9 -15,17 -24,24l-10 -9c-3,3 -7,6 -11,8l7 12c-10,6 -20,12 -30,17l-7 -11c-4,2 -9,3 -13,5l3 13c-10,4 -21,7 -33,9l-3 -13c-5,1 -10,1 -15,2l0 13c-5,1 -11,1 -17,1 -6,0 -11,0 -17,-1l0 -13c-5,-1 -10,-1 -14,-2l-4 13c-11,-2 -22,-5 -33,-9l4 -13c-5,-2 -9,-3 -14,-5l-6 11c-11,-5 -21,-11 -30,-17l7 -12c-4,-2 -8,-5 -12,-8l-9 9c-9,-7 -17,-15 -25,-24l10 -10c-3,-3 -6,-7 -9,-11l-12 7c-6,-10 -12,-20 -17,-30l12 -7c-2,-4 -4,-9 -6,-13l-13 3c-3,-10 -6,-21 -8,-33z"/>
     <path class="fil5" d="M202 20c96,0 175,75 182,170l-50 0c-6,-68 -63,-120 -132,-120 -69,0 -125,52 -132,120l-49 0c6,-95 85,-170 181,-170z"/>
     <path class="fil0" d="M384 190c0,4 0,8 0,12 0,101 -81,182 -182,182 -100,0 -182,-81 -182,-182 0,-4 0,-8 1,-12l0 -3 47 1 2 2c0,4 0,8 0,12 0,73 59,133 132,133 73,0 133,-60 133,-133 0,-4 -1,-8 -1,-12l3 -2 47 -1 0 3z"/>
     <circle class="fil5 str1" cx="202" cy="202" r="134"/>
     <g>
      <path class="fil3" d="M206 75c-6,45 -122,68 -106,158 2,9 4,13 10,21 23,30 48,39 92,48 121,-21 122,-109 76,-118 -31,-3 -58,2 -78,21 44,-31 95,-11 76,35 -8,17 -43,40 -74,46 -70,-16 -109,-66 -54,-126 44,-41 59,-61 58,-85z"/>
      <path class="fil6" d="M204 107c-23,48 -99,72 -71,131 17,24 42,37 69,44 107,-32 79,-107 23,-86 47,-5 48,50 -23,73 -44,-10 -67,-36 -53,-72 14,-36 45,-44 55,-90z"/>
      <path class="fil6" d="M148 216c19,-32 74,-27 58,-109 1,67 -57,74 -58,109z"/>
      <polygon class="fil3" points="179,306 225,306 225,316 179,316 "/>
      <polygon class="fil3" points="185,329 218,329 218,319 185,319 "/>
      <path class="fil6" d="M209 95c19,34 23,66 -16,96 24,-31 27,-63 16,-96z"/>
     </g>
     <path class="fil2" d="M36 162l3 1 -1 3 14 3 0 4 -15 -4 0 4 -3 -1 2 -10zm10 -3l0 -1c0,-2 0,-3 0,-4 0,0 -1,-1 -2,-1 -1,0 -1,0 -2,0 -1,1 -1,1 -2,3l0 1 6 2zm8 2l-1 3 -17 -5 2 -4c0,-1 0,-2 0,-2 1,-1 1,-2 1,-2 1,-1 2,-1 3,-2 1,0 2,0 3,0 1,1 2,2 3,3 1,1 1,2 1,3l8 -2 -1 4 -10 2 8 2zm0 -20l-6 -1 4 5 2 -4zm1 6l3 3 -1 3 -14 -13 1 -3 19 0 -1 4 -4 0 -3 6zm10 -13l-2 3 -15 -9 1 -3 14 -1 -10 -5 1 -3 16 8 -2 3 -13 1 10 6zm1 -14l2 -3 0 0c1,1 2,1 2,1 1,0 1,-1 2,-1 0,-1 0,-1 0,-2 0,-1 0,-1 -1,-1 -1,-1 -2,-1 -3,0 -1,0 -1,1 -1,1 -1,1 -2,1 -3,1 -1,0 -2,0 -3,-1 -2,-1 -2,-2 -3,-3 0,-1 0,-3 1,-4 1,-1 2,-2 3,-2 1,0 2,0 4,1l-2 2 0 0c0,0 -1,0 -1,0 -1,0 -1,0 -2,1 0,0 0,1 0,1 0,1 1,1 1,2 0,0 1,0 1,0 0,0 0,0 0,0 1,0 2,-1 2,-1 1,-1 1,-1 1,-1 1,-1 2,-1 3,-1 1,-1 2,0 3,0 2,1 3,3 3,4 0,2 0,3 -1,4 -1,2 -2,3 -3,3 -2,0 -3,0 -5,-1zm12 -8l-14 -11 7 -8 2 2 -4 5 3 3 4 -5 2 2 -3 4 5 5 -2 3zm3 -18c1,1 1,1 2,1 1,1 1,1 2,1 1,0 2,0 2,-1 1,0 2,0 2,-1 1,-1 2,-2 2,-4 0,-1 -1,-3 -2,-4 -1,-1 -3,-1 -4,-1 -2,0 -3,0 -4,1 -1,1 -2,3 -2,4 0,2 1,3 2,4zm-2 3c-1,-1 -2,-2 -2,-2 0,-1 -1,-2 -1,-3 0,-1 0,-3 0,-4 1,-2 1,-3 2,-4 1,-1 2,-2 3,-2 1,-1 3,-1 4,-1 1,0 2,0 3,1 1,0 2,1 3,2 1,0 2,1 2,3 1,1 1,2 1,3 0,1 0,2 0,4 -1,1 -1,2 -2,3 -1,1 -2,1 -3,2 -1,0 -3,1 -4,0 -1,0 -2,0 -3,0 -1,-1 -2,-1 -3,-2zm17 -18l1 0c1,-1 2,-2 2,-3 0,-1 0,-2 -1,-2 0,-1 -1,-2 -2,-2 -1,1 -1,1 -2,2l-1 1 3 4zm6 7l-3 2 -11 -13 3 -3c1,-1 2,-2 3,-2 0,0 1,0 1,-1 1,0 2,0 3,0 1,1 2,1 3,2 1,1 1,2 1,4 0,1 0,2 -1,3l8 2 -3 3 -9 -3 5 6zm11 -9l-3 2 -9 -15 4 -3 10 9 -3 -13 4 -3 10 15 -3 2 -7 -11 3 13 -2 2 -11 -9 7 11zm15 -9l-8 -16 3 -2 8 16 -3 2zm9 -5l-3 2 -7 -16 3 -2 11 8 -4 -11 3 -1 7 16 -3 1 -12 -7 5 10zm27 -19c0,0 0,0 0,0 0,0 0,0 0,0 0,1 0,2 0,3 0,0 0,1 0,2 0,1 -1,3 -2,4 -1,1 -3,2 -4,3 -2,0 -3,0 -4,0 -1,0 -3,-1 -4,-1 -1,-1 -2,-2 -2,-3 -1,-1 -1,-2 -2,-3 0,-1 0,-2 0,-3 0,-2 1,-3 1,-4 1,-1 2,-2 3,-3 1,0 2,-1 3,-1 2,-1 4,-1 5,0 2,0 3,2 4,3l-4 1c0,0 -1,-1 -2,-1 -1,0 -1,0 -2,0 -2,1 -3,2 -4,3 0,1 0,3 0,4 0,2 1,3 3,4 1,1 2,1 4,0 1,0 2,-1 2,-1 1,-1 2,-2 2,-3l-7 2 -1 -3 11 -3zm17 3c2,0 3,-1 4,-2 1,-1 1,-2 1,-4 0,-2 -1,-3 -2,-4 -1,-1 -3,-2 -4,-1l-3 0 2 12 2 -1zm1 3l-6 1 -2 -18 5 0c2,-1 3,-1 4,0 1,0 2,0 3,1 1,1 2,2 2,3 1,1 1,2 2,3 0,2 0,4 -1,5 0,1 -1,2 -2,3 -1,1 -1,1 -2,2 -1,0 -2,0 -3,0zm14 -10l1 0c1,0 2,0 3,-1 1,0 1,-1 1,-2 0,-1 0,-2 -1,-2 0,-1 -1,-1 -3,-1l-1 0 0 6zm0 9l-3 0 0 -18 4 0c1,0 2,0 3,0 0,0 1,1 1,1 1,0 2,1 3,2 0,1 1,2 1,3 0,1 -1,2 -1,3 -1,1 -2,2 -3,2l4 7 -4 0 -5 -8 0 8zm21 0l-10 0 1 -18 10 1 0 3 -6 -1 -1 4 6 1 0 3 -6 0 0 4 6 0 0 3zm11 -5l-1 -6 -3 5 4 1zm-6 3l-1 3 -4 0 9 -17 3 0 5 19 -4 -1 -1 -4 -7 0zm16 6l-4 -1 5 -17 4 1 1 14 8 -12 5 2 -5 17 -3 -1 3 -13 -8 12 -2 -1 -1 -14 -3 13zm18 0l3 1 0 0c-1,1 -1,1 0,2 0,1 0,1 1,1 0,0 1,0 2,0 0,0 0,-1 1,-1 0,-1 0,-2 -2,-3 0,-1 0,-1 0,-1 -1,-1 -2,-2 -2,-3 -1,-1 -1,-2 0,-3 0,-1 1,-2 3,-3 1,-1 2,-1 4,0 1,0 2,1 2,2 1,2 1,3 0,4l-3 -1 0 0c1,0 1,-1 0,-1 0,-1 0,-1 -1,-1 0,0 -1,0 -1,0 -1,0 -1,0 -1,1 0,0 0,0 0,1 0,0 0,0 0,0 0,1 1,1 1,2 1,0 1,1 1,1 1,1 2,1 2,2 1,1 0,2 0,3 -1,2 -2,3 -3,4 -1,1 -3,1 -4,0 -2,0 -3,-1 -3,-3 -1,-1 -1,-3 0,-4zm16 13l8 -16 3 2 -8 15 -3 -1zm9 5l-3 -2 10 -15 2 2 1 13 6 -9 2 1 -9 15 -3 -1 0 -14 -6 10zm29 -1l-2 2 -2 -2 -9 12 -3 -3 9 -11 -3 -2 2 -3 8 7zm-1 10c-1,0 -1,1 -1,2 0,0 -1,1 -1,2 0,1 1,1 1,2 0,1 1,1 1,2 1,1 3,1 4,1 2,0 3,0 4,-2 1,-1 2,-2 2,-4 0,-1 -1,-2 -2,-3 -1,-1 -3,-2 -4,-2 -2,0 -3,1 -4,2zm-3 -3c1,0 2,-1 2,-1 1,-1 2,-1 3,-1 1,-1 3,-1 4,0 2,0 3,1 4,2 1,1 2,2 2,3 1,1 1,2 1,3 0,2 0,3 0,4 -1,1 -1,2 -2,3 -1,1 -2,2 -3,2 -1,1 -2,1 -4,1 -1,0 -2,0 -3,-1 -1,0 -2,-1 -3,-2 -1,0 -2,-1 -3,-3 0,-1 0,-2 0,-3 0,-1 0,-2 0,-4 1,-1 1,-2 2,-3zm23 24l0 0c1,2 2,2 3,2 1,1 2,1 2,0 1,-1 1,-1 1,-2 0,-1 0,-2 -1,-3l-1 -1 -4 4zm-7 6l-2 -3 13 -11 3 3c1,1 1,2 2,2 0,1 0,2 1,2 0,1 0,2 -1,3 0,1 0,2 -1,3 -1,0 -3,1 -4,1 -1,0 -2,-1 -3,-1l-3 7 -2 -3 3 -9 -6 6zm12 16l-6 -8 15 -10 6 8 -3 2 -3 -5 -4 2 4 5 -3 2 -3 -5 -4 2 3 5 -2 2zm11 6l4 -4 -6 1 2 3zm-5 -3l-4 1 -2 -4 19 -2 1 3 -12 14 -2 -3 3 -3 -3 -6zm5 21l-3 -8 16 -7 2 3 -14 6 2 5 -3 1zm1 2l17 -6 1 4 -17 6 -1 -4zm22 10l-3 1 -1 -3 -14 4 -1 -4 14 -4 -1 -3 3 -1 3 10zm-9 11l-6 2 -1 -4 6 -1 10 -8 1 4 -7 5 8 1 1 3 -12 -2z"/>
     <path class="fil7" d="M70 303l4 -4 9 11 -9 7c-3,-1 -6,-2 -8,-3 -1,-1 -3,-3 -5,-5 -2,-2 -3,-5 -4,-7 0,-2 0,-5 1,-7 1,-2 3,-5 5,-6 3,-2 5,-3 8,-4 2,0 5,0 7,1 2,1 4,3 6,5 2,3 3,5 4,6 0,2 1,3 0,5 0,1 -1,3 -2,5l-6 -6c0,-1 1,-2 1,-3 0,-1 -1,-2 -2,-3 -1,-1 -2,-2 -4,-2 -2,0 -4,1 -6,2 -2,2 -4,4 -4,6 0,2 0,3 1,5 1,1 2,1 2,2 1,0 2,1 3,1l3 -1 -4 -5zm9 26l19 -21 11 10c2,2 3,3 4,4 1,2 1,3 1,5 0,1 -1,3 -2,4 -1,1 -2,2 -4,2 -1,1 -2,1 -4,1 0,-1 -1,-1 -3,-2 1,1 1,2 1,3 0,0 0,1 0,2 0,1 0,1 0,2l-2 9 -7 -7 2 -9c0,-2 0,-3 0,-3 0,-1 0,-1 -1,-2l-1 -1 -7 9 -7 -6zm18 -6l3 2c0,0 1,1 2,1 0,1 1,1 1,0 1,0 1,0 2,0 0,-1 1,-2 1,-3 -1,0 -1,-1 -2,-2l-3 -3 -4 5zm30 34l-9 -5 -4 4 -8 -4 23 -21 8 5 -3 30 -8 -5 1 -4zm1 -7l1 -10 -7 8 6 2zm23 -8l14 4c3,1 5,2 6,4 1,2 1,4 1,7 -1,2 -3,4 -5,5 -2,2 -4,2 -8,1l-4 -1 -3 10 -8 -3 7 -27zm5 14l2 1c2,0 3,0 4,0 1,-1 1,-1 1,-2 1,-1 0,-2 0,-3 0,0 -1,-1 -3,-1l-2 -1 -2 6zm25 -7l9 1 -1 10 9 1 1 -10 9 0 -2 29 -9 -1 1 -12 -10 0 -1 11 -8 -1 2 -28zm35 1l9 -1 3 28 -9 1 -3 -28zm41 8l8 1c0,2 -1,4 -1,5 -1,2 -2,3 -3,5 -2,1 -4,2 -6,2 -3,1 -6,1 -8,1 -2,0 -4,-1 -6,-3 -2,-2 -3,-5 -4,-8 -1,-4 -1,-8 1,-11 1,-3 4,-5 9,-7 3,-1 6,-1 8,0 3,1 5,3 6,5l-6 4c-1,-1 -1,-1 -2,-2 0,0 -1,0 -2,-1 -1,0 -1,0 -2,1 -2,0 -3,1 -4,3 -1,1 0,3 0,6 1,3 2,5 3,6 2,0 3,1 5,0 1,0 2,-1 3,-2 0,-1 1,-3 1,-5zm17 -26l20 -13 3 6 -12 7 2 4 12 -7 3 5 -12 7 3 5 13 -9 3 6 -19 13 -16 -24zm45 3l-20 -20 10 -10c2,-2 3,-3 5,-4 1,-1 2,-1 4,-1 1,1 3,1 4,3 1,1 2,2 2,3 1,1 1,3 0,4 0,1 0,2 -1,3 1,-1 2,-1 2,-1 1,0 1,0 2,0 1,0 2,0 2,0l9 3 -7 7 -9 -3c-1,0 -2,0 -3,0 0,0 -1,1 -2,1l0 1 8 8 -6 6zm-6 -18l3 -3c0,0 0,-1 1,-2 0,0 0,-1 0,-1 0,-1 0,-1 -1,-2 0,0 -1,-1 -2,-1 0,1 -1,1 -2,2l-3 3 4 4zm37 -28l-5 9 3 4 -5 7 -18 -24 5 -8 29 6 -4 8 -5 -2zm-6 -1l-11 -3 7 8 4 -5z"/>
    </g>
    <path class="fil2" d="M534 489l-8 0 -3 -8 -14 0 -3 8 -8 0 14 -36 7 0 15 36zm-14 -14l-4 -13 -5 13 9 0z"/>
    <path id="1" class="fil2" d="M537 463l7 0 0 4c0,-1 2,-2 3,-3 1,-1 3,-1 5,-1 3,0 5,1 7,3 2,3 3,6 3,10 0,4 -1,8 -3,10 -2,3 -4,4 -7,4 -2,0 -3,-1 -4,-1 -1,-1 -3,-2 -4,-3l0 13 -7 0 0 -36zm7 13c0,3 1,5 2,6 1,2 2,2 4,2 1,0 3,0 4,-2 1,-1 1,-3 1,-6 0,-3 0,-5 -1,-6 -1,-1 -3,-2 -4,-2 -2,0 -3,1 -4,2 -1,1 -2,3 -2,6z"/>
    <path id="2" class="fil2" d="M568 463l6 0 0 4c1,-1 2,-2 3,-3 2,-1 3,-1 5,-1 3,0 6,1 8,3 2,3 3,6 3,10 0,4 -1,8 -3,10 -2,3 -5,4 -8,4 -1,0 -3,-1 -4,-1 -1,-1 -2,-2 -4,-3l0 13 -6 0 0 -36zm6 13c0,3 1,5 2,6 1,2 3,2 4,2 2,0 3,0 4,-2 1,-1 2,-3 2,-6 0,-3 -1,-5 -2,-6 -1,-1 -2,-2 -4,-2 -2,0 -3,1 -4,2 -1,1 -2,3 -2,6z"/>
    <path id="3" class="fil2" d="M605 489l-7 0 0 -26 6 0 0 4c1,-2 2,-3 3,-3 1,-1 2,-1 3,-1 2,0 3,0 5,1l-3 6c-1,-1 -2,-1 -3,-1 -1,0 -1,0 -2,1 -1,0 -1,1 -2,2 0,2 0,5 0,9l0 8z"/>
    <path id="4" class="fil2" d="M616 476c0,-2 1,-5 2,-7 1,-2 2,-3 4,-5 2,-1 5,-1 7,-1 4,0 7,1 10,4 2,2 4,5 4,9 0,4 -2,7 -4,10 -3,2 -6,4 -10,4 -2,0 -4,-1 -6,-2 -3,-1 -4,-3 -5,-5 -1,-2 -2,-4 -2,-7zm7 0c0,3 1,5 2,6 1,1 2,2 4,2 2,0 4,-1 5,-2 1,-1 2,-3 2,-6 0,-2 -1,-4 -2,-6 -1,-1 -3,-2 -5,-2 -2,0 -3,1 -4,2 -1,2 -2,4 -2,6z"/>
    <path id="5" class="fil2" d="M655 489l-10 -26 7 0 5 13 1 5c0,-1 1,-2 1,-2 0,-1 0,-2 0,-3l5 -13 7 0 -10 26 -6 0z"/>
    <path id="6" class="fil2" d="M690 481l7 1c-1,3 -2,4 -4,6 -2,1 -4,2 -7,2 -4,0 -8,-2 -10,-5 -2,-2 -2,-5 -2,-9 0,-4 1,-7 3,-10 2,-2 5,-3 8,-3 4,0 7,1 9,4 3,2 4,6 4,11l-17 0c0,2 0,4 1,5 1,1 3,2 4,2 1,0 2,-1 3,-1 1,-1 1,-2 1,-3zm1 -7c0,-2 -1,-4 -2,-5 -1,-1 -2,-1 -3,-1 -2,0 -3,0 -4,2 -1,1 -1,2 -1,4l10 0z"/>
    <path id="7" class="fil2" d="M727 489l-6 0 0 -4c-1,2 -3,3 -4,4 -2,0 -3,1 -5,1 -2,0 -5,-1 -7,-4 -2,-2 -3,-6 -3,-10 0,-4 1,-8 3,-10 2,-2 4,-3 8,-3 2,0 5,1 7,3l0 -13 7 0 0 36zm-18 -13c0,2 0,4 1,6 1,1 2,2 4,2 2,0 3,0 4,-2 2,-1 2,-3 2,-6 0,-3 0,-5 -2,-6 -1,-1 -2,-2 -4,-2 -1,0 -3,1 -4,2 -1,1 -1,3 -1,6z"/>
    <path id="8" class="fil2" d="M747 489l0 -36 7 0 0 13c2,-2 5,-3 7,-3 4,0 6,1 8,3 2,2 3,6 3,10 0,4 -1,8 -3,10 -2,3 -5,4 -8,4 -1,0 -2,-1 -4,-1 -1,-1 -3,-2 -4,-4l0 4 -6 0zm7 -13c0,2 0,4 1,6 1,1 3,2 5,2 1,0 3,0 4,-2 1,-1 1,-3 1,-6 0,-3 0,-5 -1,-6 -1,-1 -3,-2 -4,-2 -2,0 -3,1 -5,2 -1,1 -1,3 -1,6z"/>
    <path id="9" class="fil2" d="M774 463l8 0 6 19 6 -19 7 0 -9 25 -2 5c0,1 -1,2 -1,3 -1,1 -2,1 -2,2 -1,0 -2,1 -3,1 -1,0 -2,0 -3,0 -2,0 -3,0 -4,0l-1 -5c1,0 2,0 3,0 2,0 3,0 4,-1 0,-1 1,-2 1,-4l-10 -26z"/>
    <path id="10" class="fil2" d="M850 489l-8 0 -3 -8 -15 0 -3 8 -7 0 14 -36 7 0 15 36zm-14 -14l-5 -13 -4 13 9 0z"/>
    <polygon id="11" class="fil2" points="853,489 853,453 860,453 860,489 "/>
    <path id="12" class="fil2" d="M890 476l7 2c-1,4 -3,7 -5,9 -3,2 -6,3 -10,3 -5,0 -9,-2 -12,-5 -3,-3 -4,-8 -4,-13 0,-6 1,-11 4,-14 4,-4 8,-5 13,-5 4,0 7,1 10,4 2,1 3,3 4,6l-7 2c-1,-2 -2,-3 -3,-4 -1,-1 -3,-2 -5,-2 -2,0 -5,1 -6,3 -2,2 -3,5 -3,9 0,5 1,8 3,10 1,2 3,2 6,2 2,0 4,0 5,-1 1,-2 2,-3 3,-6z"/>
    <polygon id="13" class="fil2" points="911,489 911,459 901,459 901,453 929,453 929,459 918,459 918,489 "/>
    <polygon id="14" class="fil2" points="933,489 933,453 960,453 960,459 941,459 941,467 958,467 958,473 941,473 941,483 960,483 960,489 "/>
    <path id="15" class="fil2" d="M966 482l7 0 0 5c0,2 0,4 0,5 -1,1 -1,2 -2,3 -1,1 -2,1 -4,2l-1 -3c1,0 2,-1 3,-2 0,0 1,-2 1,-3l-4 0 0 -7z"/>
    <polygon id="16" class="fil2" points="994,489 994,453 1005,453 1011,478 1018,453 1028,453 1028,489 1022,489 1022,461 1015,489 1008,489 1001,461 1001,489 "/>
    <path id="17" class="fil2" d="M1036 460l0 -7 6 0 0 7 -6 0zm0 29l0 -26 6 0 0 26 -6 0z"/>
    <path id="18" class="fil2" d="M1073 489l-7 0 0 -13c0,-3 0,-5 0,-5 -1,-1 -1,-2 -2,-2 0,-1 -1,-1 -2,-1 -1,0 -2,0 -3,1 -1,1 -2,1 -2,2 -1,2 -1,4 -1,6l0 12 -7 0 0 -26 7 0 0 4c2,-3 5,-4 8,-4 2,0 3,0 4,1 2,0 3,1 3,2 1,0 1,1 1,2 1,2 1,3 1,5l0 16z"/>
    <path id="19" class="fil2" d="M1080 460l0 -7 7 0 0 7 -7 0zm0 29l0 -26 7 0 0 26 -7 0z"/>
    <path id="20" class="fil2" d="M1091 482l7 -1c0,1 1,2 2,3 1,0 2,1 4,1 1,0 3,-1 3,-1 1,-1 1,-1 1,-2 0,-1 0,-1 0,-1 0,-1 -1,-1 -2,-1 -6,-1 -9,-3 -11,-4 -2,-1 -3,-3 -3,-5 0,-3 1,-4 3,-6 2,-2 4,-2 8,-2 3,0 6,0 8,1 2,2 3,3 3,6l-6 1c0,-1 -1,-2 -2,-3 0,0 -2,0 -3,0 -2,0 -3,0 -4,0 0,1 -1,1 -1,2 0,0 1,1 1,1 1,0 3,1 6,2 4,1 7,2 8,3 2,1 2,3 2,5 0,2 -1,4 -3,6 -2,2 -5,3 -8,3 -4,0 -7,-1 -9,-2 -2,-2 -3,-4 -4,-6z"/>
    <path id="21" class="fil2" d="M1133 463l0 6 -5 0 0 10c0,2 0,3 0,4 1,0 1,0 1,1 0,0 1,0 1,0 1,0 2,0 3,-1l1 6c-2,0 -4,1 -6,1 -1,0 -2,-1 -3,-1 -1,0 -2,-1 -2,-2 -1,0 -1,-1 -1,-2 0,-1 0,-3 0,-5l0 -11 -4 0 0 -6 4 0 0 -5 6 -4 0 9 5 0z"/>
    <path id="22" class="fil2" d="M1144 489l-7 0 0 -26 7 0 0 4c1,-2 2,-3 3,-3 1,-1 2,-1 3,-1 1,0 3,0 4,1l-2 6c-1,-1 -2,-1 -3,-1 -1,0 -2,0 -3,1 0,0 -1,1 -1,2 -1,2 -1,5 -1,9l0 8z"/>
    <path id="23" class="fil2" d="M1154 463l7 0 6 19 6 -19 7 0 -9 25 -1 5c-1,1 -2,2 -2,3 -1,1 -1,1 -2,2 -1,0 -2,1 -3,1 -1,0 -2,0 -3,0 -1,0 -3,0 -4,0l-1 -5c2,0 3,0 3,0 2,0 3,0 4,-1 1,-1 1,-2 2,-4l-10 -26z"/>
    <path id="24" class="fil2" d="M1197 476c0,-2 1,-5 2,-7 1,-2 2,-3 4,-5 2,-1 5,-1 7,-1 4,0 7,1 10,4 2,2 4,5 4,9 0,4 -2,7 -4,10 -3,2 -6,4 -10,4 -2,0 -4,-1 -6,-2 -3,-1 -4,-3 -5,-5 -1,-2 -2,-4 -2,-7zm7 0c0,3 1,5 2,6 1,1 3,2 4,2 2,0 4,-1 5,-2 1,-1 2,-3 2,-6 0,-2 -1,-4 -2,-6 -1,-1 -3,-2 -5,-2 -1,0 -3,1 -4,2 -1,2 -2,4 -2,6z"/>
    <path id="25" class="fil2" d="M1226 463l4 0 0 -2c0,-2 0,-3 0,-5 1,-1 2,-2 3,-2 1,-1 3,-1 5,-1 2,0 4,0 5,1l0 4c-1,0 -3,0 -4,0 -1,0 -1,0 -2,1 0,0 0,1 0,2l0 2 5 0 0 6 -5 0 0 20 -7 0 0 -20 -4 0 0 -6z"/>
    <polygon id="26" class="fil2" points="1259,489 1259,453 1267,453 1267,467 1281,467 1281,453 1288,453 1288,489 1281,489 1281,473 1267,473 1267,489 "/>
    <path id="27" class="fil2" d="M1295 489l0 -36 15 0c4,0 7,1 9,1 1,1 3,2 4,4 1,1 1,3 1,5 0,3 0,5 -2,7 -1,2 -4,3 -7,3 2,1 3,2 4,3 1,1 2,3 4,6l4 7 -8 0 -5 -8c-2,-2 -4,-4 -4,-5 -1,-1 -2,-1 -2,-1 -1,-1 -2,-1 -4,-1l-1 0 0 15 -8 0zm8 -20l5 0c3,0 5,-1 6,-1 1,0 2,-1 2,-1 1,-1 1,-2 1,-3 0,-1 0,-2 -1,-3 -1,-1 -1,-1 -3,-1 0,0 -2,-1 -5,-1l-5 0 0 10z"/>
    <path id="28" class="fil2" d="M1331 453l13 0c3,0 6,1 7,1 2,1 4,2 5,3 2,2 3,4 4,6 1,2 1,5 1,9 0,3 0,5 -1,7 -1,3 -2,5 -4,6 -1,2 -3,3 -5,3 -2,1 -4,1 -6,1l-14 0 0 -36zm7 6l0 24 6 0c2,0 3,0 4,0 1,-1 2,-1 3,-2 1,0 1,-2 2,-3 0,-2 1,-4 1,-7 0,-2 -1,-5 -1,-6 -1,-2 -1,-3 -2,-4 -1,0 -2,-1 -4,-1 0,0 -2,-1 -5,-1l-4 0z"/>
    <path id="29" class="fil2" d="M1367 482l7 0 0 5c0,2 0,4 -1,5 0,1 -1,2 -2,3 -1,1 -2,1 -3,2l-2 -3c2,0 3,-1 3,-2 1,0 1,-2 1,-3l-3 0 0 -7z"/>
    <path id="30" class="fil2" d="M1411 476l0 -6 16 0 0 14c-2,2 -4,3 -7,4 -3,1 -6,2 -8,2 -4,0 -7,-1 -10,-3 -3,-1 -5,-3 -6,-6 -2,-3 -3,-6 -3,-10 0,-4 1,-7 3,-10 1,-3 4,-5 7,-6 2,-2 5,-2 8,-2 5,0 8,1 11,3 2,1 4,4 4,7l-7 2c0,-2 -1,-3 -3,-5 -1,-1 -3,-1 -5,-1 -3,0 -5,1 -7,3 -2,2 -3,5 -3,9 0,4 1,7 3,9 2,2 4,4 7,4 2,0 3,-1 5,-1 1,-1 2,-2 3,-3l0 -4 -8 0z"/>
    <path id="31" class="fil2" d="M1432 476c0,-2 0,-5 1,-7 2,-2 3,-3 5,-5 2,-1 5,-1 7,-1 4,0 7,1 10,4 2,2 3,5 3,9 0,4 -1,7 -3,10 -3,2 -6,4 -10,4 -2,0 -5,-1 -7,-2 -2,-1 -3,-3 -5,-5 -1,-2 -1,-4 -1,-7zm7 0c0,3 0,5 2,6 1,1 2,2 4,2 2,0 3,-1 5,-2 1,-1 1,-3 1,-6 0,-2 0,-4 -1,-6 -2,-1 -3,-2 -5,-2 -2,0 -3,1 -4,2 -2,2 -2,4 -2,6z"/>
    <path id="32" class="fil2" d="M1471 489l-11 -26 8 0 4 13 2 5c0,-1 0,-2 1,-2 0,-1 0,-2 0,-3l5 -13 7 0 -10 26 -6 0z"/>
    <path id="33" class="fil2" d="M1503 463l0 6 -5 0 0 10c0,2 1,3 1,4 0,0 0,0 0,1 1,0 1,0 1,0 1,0 2,0 3,-1l1 6c-2,0 -4,1 -6,1 -1,0 -2,-1 -3,-1 -1,0 -2,-1 -2,-2 -1,0 -1,-1 -1,-2 0,-1 0,-3 0,-5l0 -11 -3 0 0 -6 3 0 0 -5 6 -4 0 9 5 0z"/>
    <polygon id="34" class="fil2" points="1508,489 1508,482 1515,482 1515,489 "/>
    <path id="35" class="fil2" d="M1534 476c0,-2 1,-5 2,-7 1,-2 2,-3 4,-5 2,-1 5,-1 7,-1 4,0 7,1 10,4 2,2 4,5 4,9 0,4 -2,7 -4,10 -3,2 -6,4 -10,4 -2,0 -4,-1 -6,-2 -3,-1 -4,-3 -5,-5 -1,-2 -2,-4 -2,-7zm7 0c0,3 1,5 2,6 1,1 2,2 4,2 2,0 4,-1 5,-2 1,-1 2,-3 2,-6 0,-2 -1,-4 -2,-6 -1,-1 -3,-2 -5,-2 -2,0 -3,1 -4,2 -1,2 -2,4 -2,6z"/>
    <path id="36" class="fil2" d="M1563 463l4 0 0 -2c0,-2 0,-3 0,-5 1,-1 2,-2 3,-2 1,-1 3,-1 5,-1 2,0 4,0 5,1l0 4c-2,0 -3,0 -4,0 -1,0 -1,0 -2,1 0,0 0,1 0,2l0 2 5 0 0 6 -5 0 0 20 -7 0 0 -20 -4 0 0 -6z"/>
    <polygon id="37" class="fil2" points="1596,489 1596,453 1603,453 1603,489 "/>
    <path id="38" class="fil2" d="M1634 489l-7 0 0 -13c0,-3 0,-5 -1,-5 0,-1 0,-2 -1,-2 -1,-1 -2,-1 -2,-1 -2,0 -3,0 -4,1 -1,1 -1,1 -2,2 0,2 0,4 0,6l0 12 -7 0 0 -26 6 0 0 4c3,-3 5,-4 9,-4 1,0 3,0 4,1 1,0 2,1 3,2 0,0 1,1 1,2 0,2 1,3 1,5l0 16z"/>
    <path id="39" class="fil2" d="M1664 489l-6 0 0 -4c-1,2 -2,3 -4,4 -1,0 -3,1 -4,1 -3,0 -6,-1 -8,-4 -2,-2 -3,-6 -3,-10 0,-4 1,-8 3,-10 2,-2 5,-3 8,-3 3,0 5,1 7,3l0 -13 7 0 0 36zm-18 -13c0,2 0,4 1,6 1,1 3,2 5,2 1,0 3,0 4,-2 1,-1 1,-3 1,-6 0,-3 0,-5 -1,-6 -1,-1 -3,-2 -4,-2 -2,0 -3,1 -4,2 -2,1 -2,3 -2,6z"/>
    <path id="40" class="fil2" d="M1671 460l0 -7 7 0 0 7 -7 0zm0 29l0 -26 7 0 0 26 -7 0z"/>
    <path id="41" class="fil2" d="M1690 471l-6 -1c0,-2 1,-4 3,-5 2,-2 4,-2 8,-2 3,0 5,0 7,1 1,0 2,1 3,3 0,1 1,3 1,6l-1 8c0,2 1,4 1,5 0,1 0,2 1,3l-7 0c0,0 0,-1 0,-2 0,0 -1,-1 -1,-1 -1,1 -2,2 -3,3 -2,0 -3,1 -5,1 -2,0 -4,-1 -6,-2 -1,-2 -2,-4 -2,-6 0,-1 0,-3 1,-4 1,-1 2,-2 3,-2 1,-1 3,-2 5,-2 3,-1 6,-1 7,-2l0 0c0,-2 0,-3 -1,-3 -1,-1 -2,-1 -4,-1 -1,0 -2,0 -3,1 0,0 -1,1 -1,2zm9 6c-1,0 -2,0 -4,1 -2,0 -3,1 -4,1 -1,1 -1,1 -1,2 0,1 0,2 1,3 0,1 1,1 2,1 2,0 3,-1 4,-1 1,-1 1,-2 2,-3 0,0 0,-1 0,-3l0 -1z"/>
   </g>
   <polygon class="fil2" points="597,432 597,395 604,395 620,420 620,395 627,395 627,432 619,432 604,408 604,432 "/>
   <path id="1" class="fil2" d="M635 395l15 0c3,0 5,0 6,0 2,0 3,1 4,2 1,1 2,2 3,3 1,1 1,3 1,4 0,2 0,4 -1,5 -1,1 -2,3 -4,3 2,1 4,2 5,4 1,1 2,3 2,5 0,2 0,4 -1,5 -1,2 -2,3 -3,4 -2,1 -3,2 -5,2 -2,0 -5,0 -10,0l-12 0 0 -37zm7 6l0 9 5 0c3,0 5,0 6,0 1,-1 2,-1 3,-2 0,-1 1,-2 1,-3 0,-1 -1,-2 -1,-3 -1,0 -2,-1 -3,-1 -1,0 -3,0 -6,0l-5 0zm0 15l0 10 7 0c3,0 5,0 5,0 2,-1 2,-1 3,-2 1,-1 1,-2 1,-3 0,-1 0,-2 -1,-3 0,-1 -1,-1 -2,-2 -1,0 -3,0 -7,0l-6 0z"/>
   <path id="2" class="fil2" d="M706 432l-8 0 -3 -8 -15 0 -3 8 -8 0 14 -37 8 0 15 37zm-14 -15l-5 -13 -5 13 10 0z"/>
   <path id="3" class="fil2" d="M754 432l-8 0 -3 -8 -15 0 -3 8 -8 0 14 -37 8 0 15 37zm-14 -15l-5 -13 -5 13 10 0z"/>
   <path id="4" class="fil2" d="M782 413l-7 1c-1,-1 -1,-2 -2,-3 -1,0 -2,-1 -3,-1 -2,0 -4,1 -5,2 -1,1 -1,3 -1,6 0,3 0,6 1,7 2,1 3,2 5,2 1,0 2,0 3,-1 1,-1 2,-2 2,-4l7 1c-1,3 -2,6 -4,7 -2,2 -5,3 -9,3 -3,0 -7,-1 -9,-4 -2,-2 -4,-6 -4,-10 0,-5 2,-8 4,-11 2,-2 6,-3 10,-3 3,0 5,0 7,2 2,1 4,3 5,6z"/>
   <path id="5" class="fil2" d="M811 413l-7 1c-1,-1 -1,-2 -2,-3 -1,0 -2,-1 -3,-1 -2,0 -4,1 -5,2 -1,1 -1,3 -1,6 0,3 0,6 1,7 1,1 3,2 5,2 1,0 2,0 3,-1 1,-1 2,-2 2,-4l7 1c-1,3 -2,6 -4,7 -2,2 -5,3 -9,3 -4,0 -7,-1 -9,-4 -2,-2 -4,-6 -4,-10 0,-5 2,-8 4,-11 2,-2 6,-3 10,-3 3,0 5,0 7,2 2,1 4,3 5,6z"/>
   <path id="6" class="fil2" d="M823 432l-7 0 0 -27 6 0 0 4c1,-2 2,-3 3,-4 1,0 2,0 3,0 2,0 4,0 5,1l-2 6c-1,-1 -2,-1 -3,-1 -1,0 -2,0 -3,1 -1,0 -1,1 -2,3 0,1 0,4 0,9l0 8z"/>
   <path id="7" class="fil2" d="M852 424l7 1c-1,2 -2,4 -4,6 -2,1 -5,2 -8,2 -4,0 -8,-2 -10,-5 -2,-2 -3,-5 -3,-9 0,-5 1,-8 4,-11 2,-2 5,-3 9,-3 4,0 7,1 9,4 2,2 3,6 3,12l-18 0c1,2 1,3 2,5 1,1 3,1 4,1 1,0 2,0 3,0 1,-1 1,-2 2,-3zm0 -8c0,-2 0,-3 -1,-4 -1,-1 -3,-2 -4,-2 -2,0 -3,1 -4,2 -1,1 -1,2 -1,4l10 0z"/>
   <path id="8" class="fil2" d="M890 432l-7 0 0 -4c-1,2 -2,3 -4,4 -1,0 -3,1 -4,1 -3,0 -6,-1 -8,-4 -2,-2 -3,-6 -3,-10 0,-5 1,-8 3,-11 2,-2 5,-3 8,-3 3,0 6,1 8,3l0 -13 7 0 0 37zm-19 -14c0,3 0,5 1,6 1,2 3,3 5,3 2,0 3,-1 4,-2 1,-1 2,-3 2,-6 0,-3 -1,-6 -2,-7 -1,-1 -2,-2 -4,-2 -2,0 -3,1 -4,2 -2,1 -2,3 -2,6z"/>
   <path id="9" class="fil2" d="M897 401l0 -6 7 0 0 6 -7 0zm0 31l0 -27 7 0 0 27 -7 0z"/>
   <path id="10" class="fil2" d="M924 405l0 6 -5 0 0 11c0,2 0,3 0,4 0,0 0,0 1,1 0,0 0,0 1,0 1,0 1,0 3,-1l0 6c-1,0 -3,1 -5,1 -2,0 -3,0 -4,-1 -1,0 -2,-1 -2,-2 -1,0 -1,-1 -1,-2 0,-1 0,-3 0,-5l0 -12 -4 0 0 -6 4 0 0 -5 7 -4 0 9 5 0z"/>
   <path id="11" class="fil2" d="M944 424l7 1c0,2 -2,4 -4,6 -2,1 -4,2 -7,2 -5,0 -8,-2 -11,-5 -1,-2 -2,-5 -2,-9 0,-5 1,-8 3,-11 3,-2 5,-3 9,-3 4,0 7,1 10,4 2,2 3,6 3,12l-18 0c0,2 1,3 2,5 1,1 2,1 4,1 1,0 2,0 3,0 0,-1 1,-2 1,-3zm1 -8c0,-2 -1,-3 -2,-4 -1,-1 -2,-2 -4,-2 -1,0 -2,1 -3,2 -1,1 -2,2 -2,4l11 0z"/>
   <path id="12" class="fil2" d="M982 432l-6 0 0 -4c-1,2 -3,3 -4,4 -2,0 -3,1 -5,1 -3,0 -5,-1 -8,-4 -2,-2 -3,-6 -3,-10 0,-5 1,-8 3,-11 2,-2 5,-3 9,-3 3,0 5,1 7,3l0 -13 7 0 0 37zm-19 -14c0,3 1,5 2,6 1,2 2,3 4,3 2,0 3,-1 5,-2 1,-1 1,-3 1,-6 0,-3 0,-6 -1,-7 -1,-1 -3,-2 -5,-2 -1,0 -3,1 -4,2 -1,1 -2,3 -2,6z"/>
   <path id="13" class="fil2" d="M1004 432l0 -37 12 0c5,0 8,0 9,0 2,1 4,2 5,4 2,2 3,4 3,7 0,3 -1,5 -2,6 -1,2 -2,3 -3,4 -1,1 -2,1 -4,2 -2,0 -4,0 -8,0l-4 0 0 14 -8 0zm8 -31l0 11 4 0c3,0 5,0 6,-1 1,0 1,-1 2,-2 0,0 1,-1 1,-3 0,-1 -1,-2 -1,-3 -1,-1 -2,-1 -3,-2 -1,0 -3,0 -6,0l-3 0z"/>
   <path id="14" class="fil2" d="M1045 432l-7 0 0 -27 7 0 0 4c1,-2 2,-3 3,-4 1,0 2,0 3,0 2,0 3,0 5,1l-2 6c-2,-1 -3,-1 -4,-1 -1,0 -2,0 -2,1 -1,0 -2,1 -2,3 0,1 -1,4 -1,9l0 8z"/>
   <path id="15" class="fil2" d="M1057 418c0,-2 1,-4 2,-7 1,-2 3,-4 5,-5 2,-1 5,-1 7,-1 4,0 8,1 10,4 3,2 4,6 4,10 0,4 -1,7 -4,10 -2,2 -6,4 -10,4 -2,0 -5,-1 -7,-2 -2,-1 -4,-3 -5,-5 -1,-2 -2,-5 -2,-8zm8 1c0,2 0,4 2,6 1,1 2,2 4,2 2,0 4,-1 5,-2 1,-2 2,-4 2,-6 0,-3 -1,-5 -2,-6 -1,-2 -3,-3 -5,-3 -2,0 -3,1 -4,3 -2,1 -2,3 -2,6z"/>
   <path id="16" class="fil2" d="M1090 434l8 1c0,1 1,1 1,2 1,0 2,1 3,1 2,0 4,-1 5,-1 0,-1 1,-1 1,-2 0,-1 0,-2 0,-3l0 -4c-2,3 -5,4 -8,4 -3,0 -6,-1 -8,-4 -2,-3 -3,-6 -3,-10 0,-4 1,-7 3,-10 3,-2 5,-3 9,-3 3,0 6,1 8,4l0 -4 6 0 0 24c0,4 0,6 0,7 -1,2 -2,3 -3,4 0,1 -2,2 -3,2 -2,1 -4,1 -6,1 -5,0 -8,-1 -10,-2 -2,-2 -3,-4 -3,-6 0,-1 0,-1 0,-1zm6 -16c0,3 1,5 2,6 1,2 3,2 4,2 2,0 3,0 5,-2 1,-1 1,-3 1,-6 0,-3 0,-5 -1,-6 -1,-1 -3,-2 -5,-2 -1,0 -3,1 -4,2 -1,1 -2,3 -2,6z"/>
   <path id="17" class="fil2" d="M1129 432l-7 0 0 -27 7 0 0 4c1,-2 2,-3 3,-4 1,0 2,0 3,0 2,0 3,0 5,1l-3 6c-1,-1 -2,-1 -3,-1 -1,0 -2,0 -2,1 -1,0 -2,1 -2,3 0,1 -1,4 -1,9l0 8z"/>
   <path id="18" class="fil2" d="M1148 413l-6 -1c0,-2 2,-4 3,-6 2,-1 5,-1 8,-1 4,0 6,0 7,1 2,0 3,1 4,3 0,1 1,3 1,6l0 8c0,3 0,4 0,6 0,1 1,2 1,3l-7 0c0,0 0,-1 -1,-2 0,0 0,-1 0,-1 -1,1 -2,2 -4,3 -1,1 -3,1 -4,1 -3,0 -5,-1 -7,-2 -1,-2 -2,-4 -2,-6 0,-2 0,-3 1,-4 1,-1 2,-2 3,-3 1,-1 3,-1 6,-2 3,0 5,-1 7,-1l0 -1c0,-2 -1,-3 -1,-3 -1,-1 -2,-1 -4,-1 -1,0 -2,0 -3,1 -1,0 -1,1 -2,2zm10 6c-1,1 -3,1 -5,1 -2,1 -3,1 -4,2 0,0 -1,1 -1,2 0,1 0,2 1,3 1,0 2,1 3,1 1,0 3,-1 4,-2 1,0 1,-1 1,-2 1,0 1,-2 1,-3l0 -2z"/>
   <path id="19" class="fil2" d="M1171 405l7 0 0 4c2,-3 5,-4 8,-4 2,0 3,0 5,1 1,0 2,1 3,3 1,-2 2,-3 4,-3 1,-1 2,-1 4,-1 2,0 4,0 5,1 1,1 2,2 3,3 1,1 1,3 1,6l0 17 -7 0 0 -15c0,-3 -1,-5 -1,-5 -1,-1 -2,-2 -3,-2 -1,0 -2,0 -3,1 -1,1 -1,1 -2,3 0,1 0,3 0,5l0 13 -8 0 0 -15c0,-2 0,-4 0,-5 0,0 -1,-1 -1,-1 -1,-1 -1,-1 -2,-1 -1,0 -2,0 -3,1 -1,0 -2,1 -2,2 0,2 -1,3 -1,6l0 13 -7 0 0 -27z"/>
   <path id="20" class="fil2" d="M1215 425l8 -2c0,2 1,3 1,4 1,0 3,1 4,1 2,0 4,-1 5,-1 0,-1 1,-1 1,-2 0,-1 -1,-1 -1,-2 0,0 -1,0 -2,-1 -6,-1 -10,-2 -11,-3 -2,-2 -4,-4 -4,-6 0,-2 1,-4 3,-6 2,-2 5,-2 9,-2 4,0 6,0 8,1 2,2 3,3 4,6l-7 1c0,-1 -1,-2 -2,-2 0,-1 -2,-1 -3,-1 -2,0 -3,0 -4,0 -1,1 -1,1 -1,2 0,0 0,1 1,1 0,1 3,1 6,2 4,1 7,2 8,3 2,2 3,3 3,6 0,2 -1,4 -3,6 -2,2 -6,3 -10,3 -3,0 -6,-1 -8,-2 -2,-2 -4,-4 -5,-6z"/>
   <path id="21" class="fil2" d="M1261 401l0 -6 8 0 0 6 -8 0zm0 31l0 -27 8 0 0 27 -8 0z"/>
   <path id="22" class="fil2" d="M1300 432l-7 0 0 -14c0,-3 0,-4 0,-5 0,-1 -1,-2 -2,-2 0,-1 -1,-1 -2,-1 -1,0 -3,0 -3,1 -1,1 -2,2 -3,3 0,1 0,3 0,6l0 12 -7 0 0 -27 6 0 0 4c3,-3 6,-4 9,-4 2,0 3,0 5,0 1,1 2,2 3,3 0,0 1,1 1,3 0,1 0,2 0,4l0 17z"/>
   <polygon id="23" class="fil2" points="1322,432 1322,395 1350,395 1350,401 1330,401 1330,409 1348,409 1348,416 1330,416 1330,426 1351,426 1351,432 "/>
   <path id="24" class="fil2" d="M1381 418l7 3c-1,4 -3,7 -6,9 -2,2 -5,3 -9,3 -5,0 -9,-2 -13,-5 -3,-4 -4,-8 -4,-14 0,-6 1,-11 4,-15 4,-3 8,-5 13,-5 5,0 8,2 11,4 2,2 3,4 4,7l-8 2c0,-2 -1,-4 -2,-5 -2,-1 -3,-1 -5,-1 -3,0 -5,1 -7,3 -2,2 -3,5 -3,9 0,5 1,8 3,10 2,2 4,3 6,3 2,0 4,0 6,-2 1,-1 2,-3 3,-6z"/>
   <polygon id="25" class="fil2" points="1395,432 1395,395 1422,395 1422,401 1402,401 1402,409 1421,409 1421,416 1402,416 1402,426 1423,426 1423,432 "/>
   <path id="26" class="fil2" d="M1429 425l7 0 0 5c0,2 0,4 0,5 -1,1 -1,2 -2,3 -1,1 -3,2 -4,2l-2 -3c2,0 3,-1 3,-1 1,-1 1,-2 1,-4l-3 0 0 -7z"/>
   <path id="27" class="fil2" d="M1482 418l7 3c-1,4 -3,7 -5,9 -3,2 -6,3 -10,3 -5,0 -9,-2 -12,-5 -4,-4 -5,-8 -5,-14 0,-6 1,-11 5,-15 3,-3 7,-5 12,-5 5,0 9,2 11,4 2,2 3,4 4,7l-7 2c-1,-2 -2,-4 -3,-5 -1,-1 -3,-1 -5,-1 -3,0 -5,1 -7,3 -2,2 -2,5 -2,9 0,5 0,8 2,10 2,2 4,3 7,3 2,0 3,0 5,-2 1,-1 2,-3 3,-6z"/>
   <path id="28" class="fil2" d="M1494 420l7 -1c1,3 1,5 3,6 1,1 3,1 5,1 3,0 4,0 6,-1 1,-1 1,-2 1,-4 0,-1 0,-1 0,-2 -1,-1 -2,-1 -3,-2 -1,0 -3,0 -6,-1 -4,-1 -7,-2 -8,-4 -3,-2 -4,-4 -4,-7 0,-2 1,-4 2,-6 1,-1 2,-3 4,-4 2,0 5,-1 8,-1 4,0 8,1 10,3 3,2 4,5 4,9l-8 0c0,-2 -1,-3 -2,-4 -1,-1 -2,-2 -4,-2 -3,0 -4,1 -5,2 -1,0 -2,1 -2,2 0,1 1,2 1,2 1,1 4,2 7,3 4,1 7,2 8,3 2,0 4,2 5,3 1,2 1,4 1,6 0,2 -1,4 -2,6 -1,2 -3,4 -5,4 -2,1 -5,2 -8,2 -5,0 -8,-1 -11,-3 -2,-3 -4,-6 -4,-10z"/>
   <polygon id="29" class="fil2" points="1530,432 1530,395 1558,395 1558,401 1538,401 1538,409 1557,409 1557,416 1538,416 1538,426 1559,426 1559,432 "/>
   <path id="30" class="fil2" d="M1613 428l-5 5c-2,-1 -4,-2 -6,-4 -1,1 -3,2 -5,3 -1,0 -3,1 -6,1 -4,0 -8,-2 -10,-4 -2,-2 -3,-4 -3,-7 0,-2 1,-5 2,-7 2,-1 4,-3 7,-5 -2,-1 -3,-2 -3,-4 -1,-1 -1,-2 -1,-4 0,-2 1,-4 3,-5 1,-2 4,-3 7,-3 3,0 6,1 8,3 2,1 2,3 2,6 0,1 0,3 -1,4 -1,1 -3,3 -5,5l5 6c0,-1 1,-2 1,-4l7 2c-1,2 -1,4 -2,5 0,1 -1,2 -1,2 0,1 2,2 3,3 1,1 2,1 3,2zm-20 -21l2 -1c1,-1 2,-2 2,-3 0,-1 0,-2 -1,-3 -1,0 -1,-1 -3,-1 -1,0 -2,1 -2,1 -1,1 -1,1 -1,2 0,1 0,2 1,3l2 2zm-3 8c-1,1 -3,2 -3,3 -1,1 -2,2 -2,4 0,1 1,2 2,3 1,1 2,2 4,2 1,0 2,0 3,-1 1,0 2,-1 4,-2l-8 -9z"/>
   <polygon id="31" class="fil2" points="1632,432 1632,395 1643,395 1650,420 1656,395 1667,395 1667,432 1661,432 1660,403 1653,432 1646,432 1639,403 1639,432 "/>
   <polygon id="32" class="fil2" points="1675,432 1675,395 1703,395 1703,401 1683,401 1683,409 1701,409 1701,416 1683,416 1683,426 1703,426 1703,432 "/>
  </g>
 </g>
</svg>
